<svg width="61" height="60" viewBox="0 0 61 60" fill="none" xmlns="http://www.w3.org/2000/svg">
<path d="M10.7337 46.1245C10.0951 48.0806 9.70414 49.6136 9.5633 50.7164H52.399C52.2581 49.6136 51.8647 48.0806 51.2285 46.1245C51.2026 46.0456 51.196 45.9619 51.2093 45.88C51.2226 45.7982 51.2554 45.7206 51.3051 45.6534C51.3547 45.5863 51.4198 45.5316 51.4951 45.4937C51.5704 45.4558 51.6538 45.4358 51.7385 45.4353H56.0852C56.4616 45.4353 56.7894 45.692 56.8719 46.0532C57.6004 49.1953 57.9623 51.6291 57.9623 53.357C57.9623 53.8205 57.9356 54.4503 57.8821 55.2584C57.8691 55.46 57.7779 55.6491 57.6271 55.7869C57.4763 55.9248 57.2774 56.001 57.0711 56H4.88877C4.68285 56.0004 4.48454 55.9239 4.33428 55.7861C4.18401 55.6483 4.09312 55.4596 4.08013 55.2584C4.03359 54.6256 4.00686 53.9915 4 53.357C4 51.6291 4.36425 49.1929 5.09032 46.0532C5.13059 45.8778 5.23069 45.721 5.37413 45.6087C5.51758 45.4964 5.69582 45.4352 5.87952 45.4353H10.2214C10.3062 45.4354 10.3899 45.4551 10.4655 45.4929C10.5411 45.5306 10.6066 45.5853 10.6565 45.6525C10.7064 45.7197 10.7394 45.7974 10.7529 45.8795C10.7663 45.9615 10.7597 46.0455 10.7337 46.1245ZM25.3183 27.2174L30.3546 22.2856C30.6078 22.038 30.9511 21.8989 31.309 21.8989C31.6669 21.8989 32.0101 22.038 32.2633 22.2856L34.1695 24.1537C34.4218 24.4014 34.5634 24.7369 34.5634 25.0866C34.5634 25.4363 34.4218 25.7718 34.1695 26.0195L29.1356 30.9513L36.1098 40.0305L46.1873 10.6537L16.0591 20.4079L25.3134 27.2174H25.3183ZM9.11163 21.8958C8.67848 21.5772 8.34272 21.1487 8.14074 20.6566C7.93875 20.1646 7.87827 19.6278 7.96584 19.1044C8.05341 18.5811 8.28569 18.0912 8.6375 17.688C8.9893 17.2847 9.4472 16.9833 9.96154 16.8167L49.1062 4.14613C49.6294 3.97724 50.1903 3.95425 50.7261 4.07974C51.262 4.20524 51.7515 4.47426 52.1399 4.85667C52.5284 5.23908 52.8004 5.71979 52.9255 6.24495C53.0506 6.77011 53.0238 7.31899 52.8482 7.83011L39.7498 45.9891C39.5778 46.4911 39.2689 46.9376 38.8564 47.2802C38.4439 47.6228 37.9436 47.8486 37.4095 47.933C36.8754 48.0174 36.3279 47.9573 35.8262 47.7592C35.3245 47.5611 34.8876 47.2326 34.5629 46.809L23.6354 32.5889L9.1092 21.8934L9.11163 21.8982V21.8958Z" fill="#3AB795"/>
</svg>
