<svg width="50" height="50" viewBox="0 0 50 50" fill="none" xmlns="http://www.w3.org/2000/svg">
<path d="M27.7558 12.158C30.253 12.8174 32.8198 11.3569 33.489 8.89595C34.1581 6.43496 32.6761 3.90538 30.179 3.24598C27.6818 2.58657 25.1149 4.04703 24.4459 6.50801C23.7767 8.96895 25.2586 11.4986 27.7558 12.158Z" fill="white"/>
<path d="M38.9699 24.611L30.2467 14.8957C29.7896 14.2485 29.1091 13.75 28.2803 13.5312L26.3674 13.0261C26.1903 12.9793 26.0126 12.9471 25.8355 12.9283C25.0903 12.6091 24.1965 12.6812 23.4981 13.1957L11.3805 22.1282C10.3463 22.8912 10.1348 24.3368 10.9085 25.3566C11.368 25.9626 12.072 26.2818 12.7851 26.2818C13.2719 26.2818 13.7645 26.132 14.1851 25.8223L20.524 21.1496L19.0705 26.4953C19.0008 26.6557 18.9478 26.8259 18.9153 27.0049L17.2662 36.1023L11.0343 43.0091C10.1748 43.9614 10.2617 45.4194 11.2274 46.2657C11.6731 46.6566 12.2285 46.8486 12.7816 46.8486C13.4273 46.8486 14.0696 46.5873 14.5313 46.0749L21.2021 38.6815C21.4901 38.3633 21.6821 37.9731 21.7575 37.5546L22.8697 31.4209L27.8386 37.977L30.2534 45.2589C30.5769 46.2315 31.4934 46.8492 32.4785 46.8492C32.7185 46.8492 32.9642 46.812 33.2054 46.7343C34.4339 46.3384 35.1048 45.0359 34.7037 43.8252L32.1688 36.1835C32.0888 35.9453 31.9711 35.7211 31.8191 35.5201L27.4419 29.7444L29.7748 21.3319L35.4636 27.6678C35.9265 28.183 36.571 28.4461 37.2179 28.4461C37.7687 28.4461 38.3219 28.2551 38.7676 27.8672C39.7357 27.0223 39.8259 25.5649 38.9699 24.611Z" fill="white"/>
</svg>
