<svg width="61" height="60" viewBox="0 0 61 60" fill="none" xmlns="http://www.w3.org/2000/svg">
<path fill-rule="evenodd" clip-rule="evenodd" d="M13.4291 50.9352C18.2594 54.8764 24.3037 57.0195 30.5337 56.9999C34.131 57.0084 37.6933 56.2912 41.0079 54.891C47.5898 52.0967 52.795 46.7994 55.4798 40.163C58.1646 33.5266 58.1094 26.094 55.3263 19.4984C52.5432 12.9027 47.2598 7.6836 40.6371 4.98776C34.0144 2.29193 26.5942 2.33992 20.0068 5.12119C14.2635 7.5392 9.53396 11.8758 6.6229 17.393C3.71185 22.9103 2.79912 29.2674 4.04001 35.3828C5.2809 41.4982 8.59876 46.994 13.4291 50.9352ZM7.87311 28.115C8.83277 16.4466 18.5924 7.23008 30.5337 7.23008C42.425 7.23008 52.2295 16.4466 53.1939 28.115H50.8859C50.3271 28.115 49.7912 28.3372 49.3961 28.7327C49.001 29.1282 48.779 29.6646 48.779 30.2239C48.779 30.7832 49.001 31.3196 49.3961 31.7151C49.7912 32.1106 50.3271 32.3328 50.8859 32.3328H53.1542C52.0615 43.0966 43.471 51.6789 32.6618 52.6837V50.891C32.6618 50.3317 32.4398 49.7953 32.0447 49.3998C31.6496 49.0043 31.1137 48.7821 30.5549 48.7821C29.9962 48.7821 29.4603 49.0043 29.0652 49.3998C28.6701 49.7953 28.4481 50.3317 28.4481 50.891V52.6876C17.6189 51.7013 9.00726 43.1107 7.91313 32.3328H10.1187C10.6774 32.3328 11.2133 32.1106 11.6084 31.7151C12.0035 31.3196 12.2255 30.7832 12.2255 30.2239C12.2255 29.6646 12.0035 29.1282 11.6084 28.7327C11.2133 28.3372 10.6774 28.115 10.1187 28.115H7.87311ZM29.3962 33.3345H40.6151C41.1738 33.3344 41.7096 33.1122 42.1046 32.7167C42.4996 32.3212 42.7216 31.7849 42.7216 31.2256C42.7216 30.6663 42.4996 30.13 42.1046 29.7345C41.7096 29.339 41.1738 29.1168 40.6151 29.1167H31.503V12.7201C31.503 12.1608 31.281 11.6244 30.8859 11.2289C30.4908 10.8334 29.9549 10.6112 29.3962 10.6112C28.8374 10.6112 28.3015 10.8334 27.9064 11.2289C27.5113 11.6244 27.2893 12.1608 27.2893 12.7201V31.2256C27.2893 31.7849 27.5113 32.3213 27.9064 32.7168C28.3015 33.1123 28.8374 33.3345 29.3962 33.3345Z" fill="#3AB795"/>
<path d="M30.5337 56.9999L30.5349 56.4999L30.5321 56.4999L30.5337 56.9999ZM13.4291 50.9352L13.7452 50.5478L13.4291 50.9352ZM41.0079 54.891L41.2025 55.3516L41.2033 55.3512L41.0079 54.891ZM55.3263 19.4984L55.787 19.304L55.3263 19.4984ZM40.6371 4.98776L40.8256 4.52466L40.6371 4.98776ZM20.0068 5.12119L20.2008 5.58202L20.2013 5.58182L20.0068 5.12119ZM6.6229 17.393L7.06512 17.6264L6.6229 17.393ZM4.04001 35.3828L3.55 35.4823H3.55L4.04001 35.3828ZM7.87311 28.115L7.37479 28.074L7.3303 28.615H7.87311V28.115ZM53.1939 28.115V28.615H53.7369L53.6922 28.0738L53.1939 28.115ZM49.3961 31.7151L49.7498 31.3617L49.3961 31.7151ZM53.1542 32.3328L53.6517 32.3833L53.7076 31.8328H53.1542V32.3328ZM32.6618 52.6837H32.1618V53.2323L32.708 53.1815L32.6618 52.6837ZM28.4481 52.6876L28.4028 53.1855L28.9481 53.2352V52.6876H28.4481ZM7.91313 32.3328V31.8328H7.3598L7.41568 32.3833L7.91313 32.3328ZM11.6084 31.7151L11.2547 31.3617H11.2547L11.6084 31.7151ZM11.6084 28.7327L11.9621 28.3793V28.3793L11.6084 28.7327ZM40.6151 33.3345V33.8345H40.6151L40.6151 33.3345ZM42.1046 32.7167L42.4584 33.0701L42.4584 33.07L42.1046 32.7167ZM42.1046 29.7345L42.4584 29.3812L42.4584 29.3812L42.1046 29.7345ZM40.6151 29.1167L40.6151 28.6167H40.6151V29.1167ZM31.503 29.1167H31.003V29.6167H31.503V29.1167ZM27.9064 11.2289L28.2602 11.5823V11.5823L27.9064 11.2289ZM27.9064 32.7168L28.2602 32.3634V32.3634L27.9064 32.7168ZM30.5321 56.4999C24.4179 56.5192 18.4858 54.4159 13.7452 50.5478L13.113 51.3226C18.0329 55.337 24.1895 57.5199 30.5353 57.4999L30.5321 56.4999ZM40.8133 54.4304C37.5606 55.8045 34.065 56.5083 30.5349 56.4999L30.5325 57.4999C34.1971 57.5086 37.8259 56.778 41.2025 55.3516L40.8133 54.4304ZM55.0163 39.9755C52.3811 46.4892 47.2723 51.6883 40.8125 54.4307L41.2033 55.3512C47.9073 52.5051 53.2089 47.1096 55.9433 40.3505L55.0163 39.9755ZM54.8656 19.6927C57.5973 26.1665 57.6515 33.4617 55.0163 39.9755L55.9433 40.3505C58.6778 33.5914 58.6215 26.0215 55.787 19.304L54.8656 19.6927ZM40.4486 5.45087C46.9484 8.09667 52.1339 13.219 54.8656 19.6927L55.787 19.304C52.9524 12.5864 47.5712 7.27053 40.8256 4.52466L40.4486 5.45087ZM20.2013 5.58182C26.6664 2.85217 33.9489 2.80507 40.4486 5.45087L40.8256 4.52466C34.08 1.77879 26.522 1.82767 19.8123 4.66057L20.2013 5.58182ZM7.06512 17.6264C9.92229 12.2112 14.5642 7.95512 20.2008 5.58202L19.8128 4.66037C13.9628 7.12329 9.14562 11.5403 6.18068 17.1597L7.06512 17.6264ZM4.53003 35.2834C3.31208 29.2811 4.20795 23.0415 7.06512 17.6264L6.18068 17.1597C3.21575 22.7791 2.28616 29.2538 3.55 35.4823L4.53003 35.2834ZM13.7452 50.5478C9.00444 46.6797 5.74797 41.2857 4.53003 35.2834L3.55 35.4823C4.81384 41.7107 8.19307 47.3084 13.113 51.3226L13.7452 50.5478ZM30.5337 6.73008C18.3285 6.73008 8.35549 16.1498 7.37479 28.074L8.37143 28.156C9.31005 16.7434 18.8562 7.73008 30.5337 7.73008V6.73008ZM53.6922 28.0738C52.7067 16.1492 42.6884 6.73008 30.5337 6.73008V7.73008C42.1617 7.73008 51.7524 16.7439 52.6956 28.1562L53.6922 28.0738ZM50.8859 28.615H53.1939V27.615H50.8859V28.615ZM49.7498 29.0861C50.0512 28.7844 50.4599 28.615 50.8859 28.615V27.615C50.1943 27.615 49.5312 27.89 49.0424 28.3793L49.7498 29.0861ZM49.279 30.2239C49.279 29.797 49.4484 29.3877 49.7498 29.0861L49.0424 28.3793C48.5536 28.8686 48.279 29.5321 48.279 30.2239H49.279ZM49.7498 31.3617C49.4484 31.06 49.279 30.6507 49.279 30.2239H48.279C48.279 30.9156 48.5536 31.5792 49.0424 32.0685L49.7498 31.3617ZM50.8859 31.8328C50.4599 31.8328 50.0512 31.6634 49.7498 31.3617L49.0424 32.0685C49.5312 32.5578 50.1943 32.8328 50.8859 32.8328V31.8328ZM53.1542 31.8328H50.8859V32.8328H53.1542V31.8328ZM32.708 53.1815C43.7567 52.1545 52.535 43.3834 53.6517 32.3833L52.6568 32.2823C51.5881 42.8097 43.1853 51.2033 32.6155 52.1858L32.708 53.1815ZM32.1618 50.891V52.6837H33.1618V50.891H32.1618ZM31.691 49.7532C31.9924 50.0549 32.1618 50.4641 32.1618 50.891H33.1618C33.1618 50.1992 32.8872 49.5357 32.3984 49.0464L31.691 49.7532ZM30.5549 49.2821C30.9809 49.2821 31.3896 49.4515 31.691 49.7532L32.3984 49.0464C31.9096 48.5571 31.2465 48.2821 30.5549 48.2821V49.2821ZM29.4189 49.7532C29.7203 49.4515 30.1289 49.2821 30.5549 49.2821V48.2821C29.8634 48.2821 29.2003 48.5571 28.7115 49.0464L29.4189 49.7532ZM28.9481 50.891C28.9481 50.4641 29.1175 50.0549 29.4189 49.7532L28.7115 49.0464C28.2226 49.5357 27.9481 50.1992 27.9481 50.891H28.9481ZM28.9481 52.6876V50.891H27.9481V52.6876H28.9481ZM7.41568 32.3833C8.53384 43.3978 17.3337 52.1774 28.4028 53.1855L28.4935 52.1896C17.9041 51.2252 9.48068 42.8235 8.41057 32.2823L7.41568 32.3833ZM10.1187 31.8328H7.91313V32.8328H10.1187V31.8328ZM11.2547 31.3617C10.9533 31.6634 10.5447 31.8328 10.1187 31.8328V32.8328C10.8102 32.8328 11.4733 32.5578 11.9622 32.0685L11.2547 31.3617ZM11.7255 30.2239C11.7255 30.6507 11.5561 31.06 11.2547 31.3617L11.9621 32.0685C12.451 31.5792 12.7255 30.9156 12.7255 30.2239H11.7255ZM11.2547 29.0861C11.5561 29.3877 11.7255 29.797 11.7255 30.2239H12.7255C12.7255 29.5321 12.451 28.8686 11.9621 28.3793L11.2547 29.0861ZM10.1187 28.615C10.5447 28.615 10.9533 28.7844 11.2547 29.0861L11.9621 28.3793C11.4733 27.89 10.8102 27.615 10.1187 27.615V28.615ZM7.87311 28.615H10.1187V27.615H7.87311V28.615ZM40.6151 32.8345H29.3962V33.8345H40.6151V32.8345ZM41.7509 32.3633C41.4495 32.665 41.0409 32.8344 40.615 32.8345L40.6151 33.8345C41.3066 33.8344 41.9696 33.5594 42.4584 33.0701L41.7509 32.3633ZM42.2216 31.2256C42.2216 31.6524 42.0522 32.0617 41.7508 32.3633L42.4584 33.07C42.9471 32.5808 43.2216 31.9173 43.2216 31.2256H42.2216ZM41.7508 30.0879C42.0522 30.3895 42.2216 30.7988 42.2216 31.2256H43.2216C43.2216 30.5339 42.9471 29.8704 42.4584 29.3812L41.7508 30.0879ZM40.615 29.6167C41.0409 29.6168 41.4495 29.7862 41.7509 30.0879L42.4584 29.3812C41.9696 28.8919 41.3066 28.6168 40.6151 28.6167L40.615 29.6167ZM31.503 29.6167H40.6151V28.6167H31.503V29.6167ZM31.003 12.7201V29.1167H32.003V12.7201H31.003ZM30.5322 11.5823C30.8336 11.884 31.003 12.2932 31.003 12.7201H32.003C32.003 12.0283 31.7285 11.3648 31.2397 10.8755L30.5322 11.5823ZM29.3962 11.1112C29.8222 11.1112 30.2308 11.2806 30.5322 11.5823L31.2397 10.8755C30.7508 10.3862 30.0877 10.1112 29.3962 10.1112V11.1112ZM28.2602 11.5823C28.5615 11.2806 28.9702 11.1112 29.3962 11.1112V10.1112C28.7046 10.1112 28.0415 10.3862 27.5527 10.8755L28.2602 11.5823ZM27.7893 12.7201C27.7893 12.2932 27.9588 11.884 28.2602 11.5823L27.5527 10.8755C27.0639 11.3648 26.7893 12.0283 26.7893 12.7201H27.7893ZM27.7893 31.2256V12.7201H26.7893V31.2256H27.7893ZM28.2602 32.3634C27.9588 32.0617 27.7893 31.6525 27.7893 31.2256H26.7893C26.7893 31.9174 27.0639 32.5809 27.5527 33.0702L28.2602 32.3634ZM29.3962 32.8345C28.9702 32.8345 28.5615 32.6651 28.2602 32.3634L27.5527 33.0702C28.0415 33.5595 28.7046 33.8345 29.3962 33.8345V32.8345Z" fill="#3AB795"/>
</svg>
