<svg width="100" height="100" viewBox="0 0 100 100" fill="none" xmlns="http://www.w3.org/2000/svg">
<circle cx="50" cy="50" r="50" fill="url(#paint0_linear_48_1960)" fill-opacity="0.4"/>
<path d="M66.7599 58.2272L66.7591 58.2275C62.4403 59.841 58.1458 60.1123 54.7161 59.3061C51.2767 58.4976 48.8465 56.6538 47.9059 54.1392C46.9658 51.6257 47.5927 48.6419 49.662 45.7766C51.7253 42.9196 55.1489 40.3088 59.468 38.6951C63.7868 37.0816 68.0813 36.8103 71.511 37.6165C74.9503 38.4251 77.3806 40.2688 78.3211 42.7835C79.2613 45.297 78.6343 48.2828 76.565 51.1491C74.5017 54.007 71.0783 56.6175 66.7599 58.2272ZM49.1439 53.6739C50.2129 56.5307 52.8643 58.3332 56.0188 59.0753C59.183 59.8198 62.9944 59.5463 66.7334 58.1493C70.4723 56.7561 73.5314 54.4645 75.4339 51.8281C77.3306 49.1998 78.1526 46.099 77.0832 43.241C76.0142 40.3842 73.3628 38.5818 70.2083 37.8396C67.0441 37.0951 63.2326 37.3687 59.4937 38.7657C55.7552 40.1625 52.696 42.454 50.7933 45.0895C48.8965 47.7169 48.0744 50.8158 49.1439 53.6739Z" fill="#CEEFE5" stroke="#3AB795" stroke-width="2.4"/>
<path d="M29.6409 41.2937L46.9927 55.6698L44.3571 65.2925L26.1396 45.0423L29.6409 41.2937Z" fill="#CEEFE5" stroke="#3AB795" stroke-width="2.4"/>
<path d="M20.791 42.3525L29.0457 34.1133L30.8234 42.3602L27.1443 46.0393L20.791 42.3525Z" fill="#CEEFE5" stroke="#3AB795" stroke-width="2.4"/>
<path d="M27.1433 36.0069L18.8887 44.2539L27.1356 46.0393L30.8224 42.368L27.1433 36.0069ZM45.2217 31.2536C45.2217 31.2536 47.9964 19.9923 59.3118 20L65.3946 32.2893L45.2217 31.2536Z" fill="#CEEFE5" stroke="#3AB795" stroke-width="2.4"/>
<path d="M66.2376 29.87L56.4603 29.8622H54.4662L44.6889 29.8545L41.1104 67.2865L54.4353 67.2942H56.4371L69.7621 67.3019L66.2376 29.87Z" fill="#CEEFE5" stroke="#3AB795" stroke-width="2.4"/>
<path d="M66.2363 29.8703L56.459 29.8625H56.4744L56.5054 67.2945L69.7607 67.3022L66.2363 29.8703Z" fill="#CEEFE5" stroke="#3AB795" stroke-width="2.4"/>
<defs>
<linearGradient id="paint0_linear_48_1960" x1="50" y1="0" x2="50" y2="100" gradientUnits="userSpaceOnUse">
<stop stop-color="#3AB7A1"/>
<stop offset="1" stop-color="#3AB795" stop-opacity="0"/>
</linearGradient>
</defs>
</svg>
