<svg width="60" height="48" viewBox="0 0 60 48" fill="none" xmlns="http://www.w3.org/2000/svg">
<path fill-rule="evenodd" clip-rule="evenodd" d="M13.1991 5.12394C26.9123 -4.12674 45.5886 -0.506678 54.8473 13.2011C58.176 18.111 59.9694 23.8999 59.9996 29.8317C60.0298 35.7635 58.2954 41.5703 55.0169 46.5138C54.8245 46.7921 54.5786 47.0293 54.2934 47.2114C54.0083 47.3934 53.6897 47.5168 53.3562 47.5742C52.8701 47.66 52.3694 47.6031 51.9149 47.4103C51.4604 47.2175 51.0715 46.8971 50.7953 46.4879C50.5191 46.0787 50.3674 45.5982 50.3585 45.1046C50.3497 44.611 50.4841 44.1254 50.7455 43.7066C53.1549 40.0903 54.567 35.9021 54.8393 31.5652H51.997C51.6385 31.5454 51.2874 31.4544 50.9644 31.2976C50.6414 31.1407 50.3528 30.921 50.1156 30.6515C49.8783 30.3819 49.6971 30.0678 49.5825 29.7274C49.4679 29.3871 49.4223 29.0273 49.4482 28.6692C49.4972 28.0187 49.7778 27.4074 50.239 26.9462C50.7003 26.4849 51.3116 26.2043 51.9621 26.1553L54.6078 26.1526C53.9981 22.2153 52.4418 18.4849 50.0726 15.2816L48.5304 16.8077C48.2627 17.0485 47.9497 17.2335 47.6095 17.3516C47.2694 17.4697 46.9091 17.5187 46.5498 17.4956C46.1905 17.4725 45.8394 17.3779 45.5172 17.2173C45.195 17.0566 44.9081 16.8332 44.6735 16.5601C43.7853 15.5373 43.7799 14.0463 44.66 13.0154L46.3853 11.2902C42.5476 7.92692 37.7707 5.8217 32.699 5.25851L32.7017 5.32849V8.73593C32.681 9.09837 32.588 9.453 32.428 9.7789C32.2681 10.1048 32.0445 10.3954 31.7704 10.6334C31.5037 10.8709 31.1916 11.0517 30.8529 11.1651C30.5143 11.2784 30.1562 11.3219 29.8003 11.2928C28.4572 11.196 27.3725 10.114 27.2783 8.77092L27.2756 5.30965L27.2783 5.2316C22.1621 5.80607 17.3478 7.94535 13.4925 11.3574L15.102 12.9831C16.1005 14.1512 15.966 15.8711 14.8301 16.8427C13.8154 17.7094 12.2894 17.704 11.2801 16.8266L9.8105 15.3597C7.48995 18.5533 5.96724 22.2558 5.36953 26.158H7.88877C8.24672 26.1796 8.59687 26.2717 8.91905 26.4292C9.24122 26.5867 9.52906 26.8063 9.76598 27.0755C10.0029 27.3447 10.1842 27.6581 10.2995 27.9977C10.4148 28.3372 10.4617 28.6963 10.4376 29.054C10.3407 30.3917 9.26143 31.4737 7.92376 31.5679L5.17036 31.5706C5.44527 35.9902 6.90387 40.2544 9.39332 43.9165L9.48752 44.0861C9.7042 44.4742 9.81618 44.912 9.81244 45.3566C9.80871 45.8011 9.68939 46.237 9.46622 46.6214C9.24304 47.0059 8.92368 47.3257 8.53952 47.5493C8.15536 47.773 7.71962 47.8929 7.27511 47.8972H7.15668L7.11362 47.8784C6.31963 47.8407 5.58485 47.4343 5.12729 46.7776C-4.12877 33.0617 -0.506011 14.38 13.1991 5.12394ZM35.7352 20.8369C36.1555 20.5819 36.6379 20.4478 37.1294 20.4493C37.4846 20.4487 37.8364 20.5186 38.1645 20.6549C38.4925 20.7912 38.7902 20.9912 39.0404 21.2433C39.293 21.4931 39.4933 21.7908 39.6296 22.1189C39.766 22.447 39.8356 22.7989 39.8344 23.1542C39.8354 23.5097 39.766 23.8618 39.6302 24.1902C39.4943 24.5187 39.2948 24.817 39.0431 25.0679L32.7934 31.3014C32.7957 31.4003 32.7912 31.4992 32.78 31.5975C32.7827 33.8422 30.9228 35.702 28.6378 35.702C26.3527 35.702 24.4929 33.8422 24.4929 31.5571C24.4955 29.2747 26.3554 27.4203 28.6378 27.4203C28.6811 27.4176 28.7279 27.4169 28.7757 27.4162C28.8228 27.4155 28.8709 27.4149 28.9177 27.4122L35.6357 20.6727L35.7352 20.8369Z" fill="#3AB795"/>
</svg>
