<svg width="60" height="60" viewBox="0 0 60 60" fill="none" xmlns="http://www.w3.org/2000/svg">
<rect width="60" height="60" rx="30" fill="white"/>
<path d="M45.4375 49H14.5625C13.2503 49 12.1875 47.9372 12.1875 46.625V13.375C12.1875 12.0628 13.2503 11 14.5625 11H40.7065L43.0815 13.375H43.0625L45.4375 15.75V15.731L47.8125 18.106V46.625C47.8125 47.9372 46.7497 49 45.4375 49ZM45.4375 19.3125H41.0829C40.2089 19.3125 39.5 18.6036 39.5 17.7296V13.375H14.5625V46.625H45.4375V19.3125ZM21.6875 34.75H38.3125C38.968 34.75 39.5 35.282 39.5 35.9375C39.5 36.593 38.968 37.125 38.3125 37.125H21.6875C21.032 37.125 20.5 36.593 20.5 35.9375C20.5 35.282 21.032 34.75 21.6875 34.75ZM21.6875 40.6875H38.3125C38.968 40.6875 39.5 41.2195 39.5 41.875C39.5 42.5305 38.968 43.0625 38.3125 43.0625H21.6875C21.032 43.0625 20.5 42.5305 20.5 41.875C20.5 41.2195 21.032 40.6875 21.6875 40.6875ZM22.875 30.8384C22.8714 29.0927 23.4925 29.1759 25.5029 28.2164C26.1881 27.8886 28.3541 26.9267 28.3541 26.9267C28.3541 26.9267 28.4634 26.4363 28.3541 26.067C27.8435 25.7713 27.321 24.4591 27.2569 23.9176C26.7819 23.7027 26.6406 22.7907 26.599 22.628C26.5598 22.4772 26.6417 22.0402 26.96 22.0153C26.8674 21.7338 26.8175 21.4334 26.8175 21.1234C26.8175 21.051 26.8234 20.9797 26.8294 20.9085C26.8234 20.8372 26.8175 20.766 26.8175 20.6936C26.8175 19.0323 28.2413 18.1143 29.9976 18.1143C31.7539 18.1143 33.1778 19.0311 33.1778 20.6936C33.1778 20.766 33.1718 20.8372 33.1659 20.9085C33.1706 20.9797 33.1778 21.051 33.1778 21.1234C33.1778 21.4346 33.1279 21.7338 33.0352 22.0153C33.3547 22.0402 33.4354 22.4772 33.3963 22.628C33.3547 22.7907 33.2134 23.7027 32.7384 23.9176C32.6742 24.4591 32.1529 25.7713 31.6411 26.067C31.5058 26.4696 31.6411 26.9267 31.6411 26.9267C31.6411 26.9267 33.8071 27.8886 34.4923 28.2164C36.5039 29.1759 37.1238 29.0927 37.1214 30.8384C37.1238 31.0307 37.1238 31.1056 37.125 31.1448H22.875C22.8786 31.1459 22.8691 31.3621 22.875 30.8384ZM37.1286 31.1459C37.1286 31.1459 37.1286 31.2148 37.1286 31.1459V31.1459Z" fill="#3DBD9A"/>
</svg>
