<svg width="61" height="60" viewBox="0 0 61 60" fill="none" xmlns="http://www.w3.org/2000/svg">
<g clip-path="url(#clip0_24_1513)">
<mask id="path-1-outside-1_24_1513" maskUnits="userSpaceOnUse" x="4.5" y="-2" width="53" height="64" fill="black">
<rect fill="white" x="4.5" y="-2" width="53" height="64"/>
<path d="M25.0188 4.70027L26.8752 5.52796C30.5969 7.18332 33.5893 9.0667 35.7697 11.1227C37.6922 12.938 39.0493 14.9537 39.8066 17.1155C40.9311 20.338 40.5855 23.4749 40.0849 26.0411C41.3263 23.7395 43.6236 20.1629 43.6236 20.1629L45.2234 21.7591C45.3237 21.8548 47.6643 24.1678 49.8244 27.67C51.1027 29.7424 52.0468 31.7996 52.6389 33.7876C53.386 36.3109 53.5614 38.7335 53.1586 40.9835C52.2107 46.2557 45.8168 50.5528 38.7456 53.7464L37.9133 54.1256L37.5715 53.2853C36.0861 49.6496 34.278 47.169 32.6846 44.9821C30.6325 42.1677 28.9374 39.8396 29.1814 36.5049C26.3491 39.1114 25.0785 43.1163 24.5105 46.257C23.7621 50.384 24.0277 53.9807 24.0302 54.0173L24.1509 55.5996L22.7405 54.8475C22.6185 54.7845 19.7354 53.2337 16.621 50.4609C14.7824 48.8282 13.25 47.1023 12.0607 45.3411C10.555 43.11 9.60324 40.8033 9.2284 38.4904C8.3885 33.3101 10.4152 28.1223 15.2487 23.0693L16.0556 22.2265L18.5715 26.54C19.6083 25.4767 21.5003 23.3792 23.156 20.6983C26.3263 15.5622 27.1789 10.8216 25.6884 6.60382L25.0188 4.70027ZM20.6731 0L22.6198 5.53048L23.2907 7.43654C24.5156 10.906 23.7418 14.926 20.9895 19.3856C20.3377 20.4413 19.6439 21.4013 18.9921 22.2277L18.2564 20.9679L16.5537 18.0503L14.2132 20.4955L13.4063 21.3383C7.99841 26.991 5.74809 32.8969 6.72014 38.8935C7.1547 41.5718 8.24111 44.2136 9.95013 46.7445C11.2653 48.6934 12.94 50.5768 14.9273 52.3405C18.3504 55.3892 21.5372 57.0697 21.569 57.0861L22.9489 57.8218L27.0378 60L26.6871 55.4106L26.5664 53.8283C26.5639 53.7968 26.3313 50.4672 27.0137 46.7042C27.2322 45.4948 27.5779 44.08 28.1217 42.693C28.8307 43.9919 29.7189 45.2113 30.6274 46.4585C32.2106 48.6304 33.8472 50.8766 35.2183 54.2314L35.5575 55.0667L36.5525 57.517L38.9743 56.4146L39.8066 56.0354C49.3581 51.7219 54.6948 46.805 55.6618 41.4257C56.1332 38.7851 55.9375 35.9783 55.0785 33.077C54.4203 30.8661 53.3835 28.606 51.9934 26.3548C49.6122 22.4935 47.0124 19.9677 46.9883 19.9437L45.4279 18.3866L43.1878 16.153L42.5016 17.2213C42.4152 16.9127 42.3174 16.6028 42.2094 16.2916C41.3187 13.7456 39.7431 11.3935 37.5245 9.29851C35.1344 7.04348 31.9019 5.00136 27.9171 3.22884L26.062 2.40116L20.6731 0Z"/>
</mask>
<path d="M25.0188 4.70027L26.8752 5.52796C30.5969 7.18332 33.5893 9.0667 35.7697 11.1227C37.6922 12.938 39.0493 14.9537 39.8066 17.1155C40.9311 20.338 40.5855 23.4749 40.0849 26.0411C41.3263 23.7395 43.6236 20.1629 43.6236 20.1629L45.2234 21.7591C45.3237 21.8548 47.6643 24.1678 49.8244 27.67C51.1027 29.7424 52.0468 31.7996 52.6389 33.7876C53.386 36.3109 53.5614 38.7335 53.1586 40.9835C52.2107 46.2557 45.8168 50.5528 38.7456 53.7464L37.9133 54.1256L37.5715 53.2853C36.0861 49.6496 34.278 47.169 32.6846 44.9821C30.6325 42.1677 28.9374 39.8396 29.1814 36.5049C26.3491 39.1114 25.0785 43.1163 24.5105 46.257C23.7621 50.384 24.0277 53.9807 24.0302 54.0173L24.1509 55.5996L22.7405 54.8475C22.6185 54.7845 19.7354 53.2337 16.621 50.4609C14.7824 48.8282 13.25 47.1023 12.0607 45.3411C10.555 43.11 9.60324 40.8033 9.2284 38.4904C8.3885 33.3101 10.4152 28.1223 15.2487 23.0693L16.0556 22.2265L18.5715 26.54C19.6083 25.4767 21.5003 23.3792 23.156 20.6983C26.3263 15.5622 27.1789 10.8216 25.6884 6.60382L25.0188 4.70027ZM20.6731 0L22.6198 5.53048L23.2907 7.43654C24.5156 10.906 23.7418 14.926 20.9895 19.3856C20.3377 20.4413 19.6439 21.4013 18.9921 22.2277L18.2564 20.9679L16.5537 18.0503L14.2132 20.4955L13.4063 21.3383C7.99841 26.991 5.74809 32.8969 6.72014 38.8935C7.1547 41.5718 8.24111 44.2136 9.95013 46.7445C11.2653 48.6934 12.94 50.5768 14.9273 52.3405C18.3504 55.3892 21.5372 57.0697 21.569 57.0861L22.9489 57.8218L27.0378 60L26.6871 55.4106L26.5664 53.8283C26.5639 53.7968 26.3313 50.4672 27.0137 46.7042C27.2322 45.4948 27.5779 44.08 28.1217 42.693C28.8307 43.9919 29.7189 45.2113 30.6274 46.4585C32.2106 48.6304 33.8472 50.8766 35.2183 54.2314L35.5575 55.0667L36.5525 57.517L38.9743 56.4146L39.8066 56.0354C49.3581 51.7219 54.6948 46.805 55.6618 41.4257C56.1332 38.7851 55.9375 35.9783 55.0785 33.077C54.4203 30.8661 53.3835 28.606 51.9934 26.3548C49.6122 22.4935 47.0124 19.9677 46.9883 19.9437L45.4279 18.3866L43.1878 16.153L42.5016 17.2213C42.4152 16.9127 42.3174 16.6028 42.2094 16.2916C41.3187 13.7456 39.7431 11.3935 37.5245 9.29851C35.1344 7.04348 31.9019 5.00136 27.9171 3.22884L26.062 2.40116L20.6731 0Z" fill="#3AB795"/>
<path d="M25.0188 4.70027L25.5889 3.42161C25.0781 3.1939 24.4809 3.29195 24.0698 3.67099C23.6587 4.05003 23.5125 4.63736 23.6981 5.16486L25.0188 4.70027ZM26.8752 5.52796L26.3051 6.80663L26.3062 6.80713L26.8752 5.52796ZM35.7697 11.1227L36.7309 10.1048L36.7302 10.1041L35.7697 11.1227ZM39.8066 17.1155L41.1284 16.6542L41.1279 16.6526L39.8066 17.1155ZM40.0849 26.0411L38.7108 25.773C38.5783 26.4521 38.9617 27.1261 39.6132 27.3593C40.2646 27.5924 40.9886 27.3147 41.3171 26.7057L40.0849 26.0411ZM43.6236 20.1629L44.6125 19.1719C44.3128 18.8729 43.8939 18.7255 43.473 18.7711C43.0521 18.8166 42.6745 19.0501 42.4457 19.4063L43.6236 20.1629ZM45.2234 21.7591L44.2345 22.7501C44.242 22.7576 44.2495 22.7649 44.2571 22.7722L45.2234 21.7591ZM49.8244 27.67L48.6328 28.405L48.6328 28.405L49.8244 27.67ZM52.6389 33.7876L53.9813 33.3901L53.9806 33.3879L52.6389 33.7876ZM53.1586 40.9835L54.5365 41.2312L54.5367 41.2302L53.1586 40.9835ZM38.7456 53.7464L38.1693 52.4705L38.1651 52.4724L38.7456 53.7464ZM37.9133 54.1256L36.6165 54.6531C36.7602 55.0063 37.0417 55.2856 37.396 55.4265C37.7503 55.5674 38.1468 55.5577 38.4938 55.3996L37.9133 54.1256ZM37.5715 53.2853L38.8683 52.7578L38.8675 52.7558L37.5715 53.2853ZM32.6846 44.9821L33.8161 44.1576L33.8158 44.1572L32.6846 44.9821ZM29.1814 36.5049L30.5777 36.6071C30.6196 36.0343 30.3074 35.494 29.7903 35.2443C29.2732 34.9945 28.656 35.0859 28.2334 35.4748L29.1814 36.5049ZM24.5105 46.257L25.888 46.5068L25.8882 46.5061L24.5105 46.257ZM24.0302 54.0173L22.6335 54.1144L22.6343 54.1238L24.0302 54.0173ZM24.1509 55.5996L23.4922 56.8349C23.9429 57.0752 24.4887 57.051 24.9164 56.7717C25.3441 56.4924 25.5857 56.0024 25.5469 55.4931L24.1509 55.5996ZM22.7405 54.8475L23.3992 53.6121C23.3938 53.6092 23.3883 53.6064 23.3828 53.6035L22.7405 54.8475ZM16.621 50.4609L17.552 49.4152L17.5506 49.414L16.621 50.4609ZM12.0607 45.3411L10.9002 46.1243L10.9005 46.1246L12.0607 45.3411ZM9.2284 38.4904L10.6104 38.2664L10.6104 38.2663L9.2284 38.4904ZM15.2487 23.0693L14.2375 22.1011L14.2371 22.1015L15.2487 23.0693ZM16.0556 22.2265L17.2649 21.5211C17.0435 21.1415 16.6566 20.8878 16.2201 20.8362C15.7837 20.7845 15.3483 20.9408 15.0443 21.2583L16.0556 22.2265ZM18.5715 26.54L17.3622 27.2453C17.5825 27.623 17.9666 27.8761 18.4006 27.9295C18.8345 27.9829 19.2685 27.8305 19.5738 27.5174L18.5715 26.54ZM23.156 20.6983L24.3471 21.434L24.3473 21.4337L23.156 20.6983ZM25.6884 6.60382L24.3677 7.0684L24.3684 7.07028L25.6884 6.60382ZM20.6731 0L21.243 -1.2788C20.7322 -1.50638 20.135 -1.40821 19.724 -1.02909C19.3129 -0.649975 19.1669 -0.0626319 19.3526 0.464823L20.6731 0ZM22.6198 5.53048L23.9404 5.06565V5.06565L22.6198 5.53048ZM23.2907 7.43654L21.9701 7.90136L21.9705 7.90262L23.2907 7.43654ZM20.9895 19.3856L22.1808 20.1212L22.1809 20.1209L20.9895 19.3856ZM18.9921 22.2277L17.7831 22.9337C18.0166 23.3336 18.4327 23.5921 18.8947 23.6243C19.3566 23.6566 19.8045 23.4583 20.0913 23.0947L18.9921 22.2277ZM18.2564 20.9679L17.0472 21.6736L17.0474 21.674L18.2564 20.9679ZM16.5537 18.0503L17.7629 17.3446C17.5414 16.9651 17.1545 16.7115 16.718 16.6599C16.2816 16.6084 15.8462 16.7647 15.5423 17.0822L16.5537 18.0503ZM14.2132 20.4955L15.2244 21.4637L15.2245 21.4636L14.2132 20.4955ZM13.4063 21.3383L12.395 20.3702L12.3947 20.3705L13.4063 21.3383ZM6.72014 38.8935L5.33818 39.1175L5.33821 39.1177L6.72014 38.8935ZM9.95013 46.7445L11.1106 45.9614L11.1104 45.961L9.95013 46.7445ZM14.9273 52.3405L15.8584 51.295L15.8566 51.2934L14.9273 52.3405ZM21.569 57.0861L22.2276 55.8507C22.2219 55.8477 22.2162 55.8447 22.2105 55.8417L21.569 57.0861ZM22.9489 57.8218L22.2902 59.0572L22.2907 59.0574L22.9489 57.8218ZM27.0378 60L26.3796 61.2356C26.8304 61.4757 27.3761 61.4513 27.8037 61.172C28.2312 60.8926 28.4727 60.4026 28.4338 59.8933L27.0378 60ZM26.6871 55.4106L25.2912 55.5171L25.2912 55.5173L26.6871 55.4106ZM26.5664 53.8283L27.9624 53.7218L27.9619 53.7157L26.5664 53.8283ZM27.0137 46.7042L28.3912 46.954L28.3914 46.9531L27.0137 46.7042ZM28.1217 42.693L29.3505 42.0222C29.0899 41.5448 28.5764 41.2615 28.0335 41.2958C27.4907 41.33 27.0168 41.6756 26.8183 42.182L28.1217 42.693ZM30.6274 46.4585L29.4958 47.2828L29.4961 47.2832L30.6274 46.4585ZM35.2183 54.2314L36.5154 53.7046L36.5142 53.7018L35.2183 54.2314ZM35.5575 55.0667L36.8547 54.54L36.8546 54.5398L35.5575 55.0667ZM36.5525 57.517L35.2553 58.0437C35.3988 58.397 35.6802 58.6765 36.0345 58.8176C36.3888 58.9587 36.7853 58.9492 37.1324 58.7912L36.5525 57.517ZM38.9743 56.4146L39.5543 57.6889L39.5548 57.6886L38.9743 56.4146ZM39.8066 56.0354L39.2304 54.7595L39.2261 54.7614L39.8066 56.0354ZM55.6618 41.4257L57.0397 41.6734L57.04 41.6717L55.6618 41.4257ZM55.0785 33.077L56.4209 32.6796L56.4203 32.6776L55.0785 33.077ZM51.9934 26.3548L50.8018 27.0897L50.8022 27.0903L51.9934 26.3548ZM46.9883 19.9437L45.9994 20.9347L46.0026 20.9379L46.9883 19.9437ZM45.4279 18.3866L46.4169 17.3956L46.4164 17.3952L45.4279 18.3866ZM43.1878 16.153L44.1763 15.1616C43.8766 14.8628 43.4577 14.7156 43.0369 14.7612C42.6161 14.8068 42.2386 15.0403 42.0098 15.3964L43.1878 16.153ZM42.5016 17.2213L41.1535 17.5987C41.3021 18.1297 41.7486 18.524 42.2938 18.6058C42.8391 18.6877 43.3816 18.4418 43.6796 17.9779L42.5016 17.2213ZM42.2094 16.2916L43.532 15.8325L43.5308 15.8293L42.2094 16.2916ZM37.5245 9.29851L38.4857 8.28063L38.4853 8.2802L37.5245 9.29851ZM27.9171 3.22884L27.3467 4.50737L27.3481 4.508L27.9171 3.22884ZM26.062 2.40116L26.6324 1.12264L26.6318 1.12236L26.062 2.40116ZM24.4487 5.97894L26.3051 6.80663L27.4453 4.24929L25.5889 3.42161L24.4487 5.97894ZM26.3062 6.80713C29.9316 8.41962 32.7765 10.2245 34.8093 12.1413L36.7302 10.1041C34.4021 7.90891 31.2623 5.94702 27.4441 4.24878L26.3062 6.80713ZM34.8085 12.1406C36.5933 13.8259 37.8125 15.6578 38.4853 17.5784L41.1279 16.6526C40.286 14.2496 38.7911 12.0502 36.7309 10.1048L34.8085 12.1406ZM38.4848 17.5768C39.4855 20.4445 39.1965 23.2832 38.7108 25.773L41.459 26.3092C41.9745 23.6666 42.3767 20.2316 41.1284 16.6542L38.4848 17.5768ZM41.3171 26.7057C41.9172 25.593 42.7837 24.1526 43.5111 22.9743C43.8726 22.3886 44.1958 21.874 44.4285 21.506C44.5449 21.322 44.6385 21.1749 44.7028 21.0739C44.735 21.0235 44.7599 20.9846 44.7766 20.9585C44.785 20.9454 44.7913 20.9355 44.7955 20.929C44.7976 20.9257 44.7991 20.9233 44.8002 20.9217C44.8007 20.9209 44.801 20.9204 44.8013 20.92C44.8014 20.9198 44.8015 20.9197 44.8015 20.9196C44.8015 20.9196 44.8015 20.9196 44.8016 20.9195C44.8016 20.9195 44.8015 20.9196 43.6236 20.1629C42.4457 19.4063 42.4457 19.4063 42.4456 19.4064C42.4456 19.4064 42.4456 19.4065 42.4455 19.4066C42.4454 19.4067 42.4453 19.4069 42.4451 19.4072C42.4448 19.4077 42.4443 19.4084 42.4437 19.4093C42.4425 19.4112 42.4408 19.414 42.4385 19.4175C42.4339 19.4247 42.4272 19.4352 42.4184 19.4488C42.4009 19.4762 42.3752 19.5164 42.3421 19.5683C42.276 19.6719 42.1804 19.8222 42.062 20.0095C41.8252 20.384 41.4965 20.9074 41.1285 21.5035C40.3968 22.6889 39.4939 24.1875 38.8527 25.3765L41.3171 26.7057ZM42.6348 21.154L44.2345 22.7501L46.2122 20.768L44.6125 19.1719L42.6348 21.154ZM44.2571 22.7722C44.2534 22.7686 44.2886 22.8027 44.3624 22.8779C44.4329 22.9496 44.5335 23.0537 44.6596 23.1882C44.912 23.4573 45.2651 23.8466 45.6816 24.3401C46.5163 25.329 47.5975 26.7264 48.6328 28.405L51.016 26.9351C48.7746 23.3011 46.3471 20.8962 46.1896 20.746L44.2571 22.7722ZM48.6328 28.405C49.8566 30.3891 50.7452 32.3343 51.2971 34.1872L53.9806 33.3879C53.3483 31.2649 52.3487 29.0957 51.0159 26.935L48.6328 28.405ZM51.2965 34.185C51.9912 36.5313 52.1394 38.7319 51.7805 40.7368L54.5367 41.2302C54.9833 38.7351 54.7808 36.0905 53.9813 33.3901L51.2965 34.185ZM51.7807 40.7357C51.3918 42.8988 49.8475 45.0228 47.3606 47.0618C44.8926 49.0854 41.6489 50.899 38.1694 52.4705L39.3218 55.0223C42.9134 53.4002 46.4023 51.4684 49.136 49.2271C51.8508 47.0011 53.9775 44.3404 54.5365 41.2312L51.7807 40.7357ZM38.1651 52.4724L37.3329 52.8516L38.4938 55.3996L39.326 55.0204L38.1651 52.4724ZM39.2101 53.5981L38.8683 52.7578L36.2747 53.8128L36.6165 54.6531L39.2101 53.5981ZM38.8675 52.7558C37.3125 48.9497 35.4142 46.351 33.8161 44.1576L31.5531 45.8065C33.1418 47.987 34.8597 50.3494 36.2755 53.8148L38.8675 52.7558ZM33.8158 44.1572C31.715 41.276 30.3767 39.3537 30.5777 36.6071L27.7851 36.4028C27.4982 40.3255 29.55 43.0594 31.5534 45.8069L33.8158 44.1572ZM28.2334 35.4748C25.0584 38.3966 23.7171 42.7773 23.1329 46.0078L25.8882 46.5061C26.4399 43.4553 27.6398 39.8262 30.1295 37.5351L28.2334 35.4748ZM23.133 46.0071C22.7417 48.1647 22.6168 50.174 22.589 51.6446C22.5751 52.3818 22.5854 52.9883 22.5997 53.4163C22.6068 53.6304 22.615 53.8001 22.6215 53.9195C22.6248 53.9791 22.6277 54.0262 22.6299 54.0599C22.6321 54.0937 22.6336 54.1154 22.6336 54.1144L25.4268 53.9201C25.4266 53.9168 25.4228 53.865 25.4173 53.7657C25.4118 53.6653 25.4046 53.5157 25.3982 53.323C25.3853 52.9374 25.3756 52.38 25.3885 51.6975C25.4144 50.3289 25.5309 48.4763 25.888 46.5068L23.133 46.0071ZM22.6343 54.1238L22.755 55.7061L25.5469 55.4931L25.4261 53.9108L22.6343 54.1238ZM24.8096 54.3642L23.3992 53.6121L22.0818 56.0828L23.4922 56.8349L24.8096 54.3642ZM23.3828 53.6035C23.3869 53.6056 23.3434 53.5828 23.252 53.5318C23.1645 53.483 23.0389 53.4117 22.8803 53.3185C22.5629 53.1319 22.1143 52.8582 21.5737 52.5016C20.4907 51.7874 19.0477 50.7469 17.552 49.4152L15.6901 51.5065C18.9167 54.3792 21.9062 55.9923 22.0981 56.0914L23.3828 53.6035ZM17.5506 49.414C15.788 47.8489 14.3366 46.2097 13.2209 44.5576L10.9005 46.1246C12.1635 47.9949 13.7768 49.8075 15.6915 51.5077L17.5506 49.414ZM13.2211 44.5579C11.8127 42.4709 10.9484 40.3523 10.6104 38.2664L7.84643 38.7143C8.25807 41.2543 9.29725 43.7491 10.9002 46.1243L13.2211 44.5579ZM10.6104 38.2663C9.86271 33.655 11.6207 28.8873 16.2604 24.037L14.2371 22.1015C9.20964 27.3572 6.9143 32.9652 7.84645 38.7144L10.6104 38.2663ZM16.26 24.0374L17.0669 23.1946L15.0443 21.2583L14.2375 22.1011L16.26 24.0374ZM14.8463 22.9318L17.3622 27.2453L19.7808 25.8346L17.2649 21.5211L14.8463 22.9318ZM19.5738 27.5174C20.6517 26.412 22.6186 24.2328 24.3471 21.434L21.9648 19.9627C20.382 22.5256 18.5649 24.5414 17.5692 25.5626L19.5738 27.5174ZM24.3473 21.4337C27.6571 16.0715 28.6854 10.883 27.0084 6.13736L24.3684 7.07028C25.6723 10.7602 24.9954 15.0528 21.9647 19.963L24.3473 21.4337ZM27.0091 6.13923L26.3394 4.23569L23.6981 5.16486L24.3677 7.0684L27.0091 6.13923ZM19.3526 0.464823L21.2992 5.9953L23.9404 5.06565L21.9937 -0.464823L19.3526 0.464823ZM21.2992 5.9953L21.9701 7.90136L24.6113 6.97171L23.9404 5.06565L21.2992 5.9953ZM21.9705 7.90262C23.0021 10.8243 22.4265 14.3915 19.7981 18.6504L22.1809 20.1209C25.057 15.4605 26.0291 10.9877 24.6108 6.97046L21.9705 7.90262ZM19.7983 18.6501C19.1797 19.652 18.5182 20.5679 17.8929 21.3607L20.0913 23.0947C20.7697 22.2347 21.4957 21.2307 22.1808 20.1212L19.7983 18.6501ZM20.201 21.5217L19.4653 20.2619L17.0474 21.674L17.7831 22.9337L20.201 21.5217ZM19.4655 20.2623L17.7629 17.3446L15.3445 18.7559L17.0472 21.6736L19.4655 20.2623ZM15.5423 17.0822L13.2018 19.5275L15.2245 21.4636L17.5651 19.0183L15.5423 17.0822ZM13.2019 19.5274L12.395 20.3702L14.4176 22.3065L15.2244 21.4637L13.2019 19.5274ZM12.3947 20.3705C6.77925 26.2401 4.27631 32.5668 5.33818 39.1175L8.1021 38.6695C7.21988 33.227 9.21758 27.7419 14.4179 22.3061L12.3947 20.3705ZM5.33821 39.1177C5.8091 42.0199 6.98149 44.8499 8.78988 47.528L11.1104 45.961C9.50072 43.5773 8.50031 41.1237 8.10207 38.6693L5.33821 39.1177ZM8.78964 47.5276C10.1782 49.5854 11.9339 51.5557 13.998 53.3876L15.8566 51.2934C13.946 49.5978 12.3523 47.8014 11.1106 45.9614L8.78964 47.5276ZM13.9962 53.386C17.5362 56.5387 20.8326 58.2816 20.9274 58.3305L22.2105 55.8417C22.2418 55.8579 19.1646 54.2396 15.8584 51.295L13.9962 53.386ZM20.9103 58.3215L22.2902 59.0572L23.6075 56.5864L22.2276 55.8507L20.9103 58.3215ZM22.2907 59.0574L26.3796 61.2356L27.696 58.7644L23.6071 56.5862L22.2907 59.0574ZM28.4338 59.8933L28.0831 55.3039L25.2912 55.5173L25.6419 60.1067L28.4338 59.8933ZM28.0831 55.3041L27.9624 53.7218L25.1705 53.9348L25.2912 55.5171L28.0831 55.3041ZM27.9619 53.7157C27.9643 53.7451 27.7392 50.5499 28.3912 46.954L25.6361 46.4544C24.9235 50.3845 25.1635 53.8485 25.171 53.9409L27.9619 53.7157ZM28.3914 46.9531C28.5989 45.8046 28.9236 44.483 29.4251 43.2041L26.8183 42.182C26.2321 43.6771 25.8656 45.1849 25.636 46.4552L28.3914 46.9531ZM26.8929 43.3638C27.6531 44.7564 28.5974 46.0494 29.4958 47.2828L31.759 45.6342C30.8404 44.3732 30.0084 43.2273 29.3505 42.0222L26.8929 43.3638ZM29.4961 47.2832C31.0751 49.4493 32.6211 51.577 33.9223 54.7611L36.5142 53.7018C35.0734 50.1762 33.3462 47.8115 31.7587 45.6338L29.4961 47.2832ZM33.9212 54.7583L34.2605 55.5935L36.8546 54.5398L36.5153 53.7046L33.9212 54.7583ZM34.2604 55.5934L35.2553 58.0437L37.8496 56.9903L36.8547 54.54L34.2604 55.5934ZM37.1324 58.7912L39.5543 57.6889L38.3943 55.1404L35.9725 56.2427L37.1324 58.7912ZM39.5548 57.6886L40.387 57.3094L39.2261 54.7614L38.3939 55.1406L39.5548 57.6886ZM40.3828 57.3114C49.9916 52.972 55.9397 47.7926 57.0397 41.6734L54.2838 41.178C53.4499 45.8174 48.7245 50.4719 39.2304 54.7595L40.3828 57.3114ZM57.04 41.6717C57.5543 38.791 57.3338 35.7629 56.4209 32.6796L53.7361 33.4745C54.5412 36.1937 54.7121 38.7793 54.2835 41.1796L57.04 41.6717ZM56.4203 32.6776C55.7223 30.3328 54.6303 27.9605 53.1846 25.6193L50.8022 27.0903C52.1367 29.2515 53.1184 31.3994 53.7367 33.4765L56.4203 32.6776ZM53.185 25.6199C51.9482 23.6144 50.6575 21.9597 49.6732 20.803C49.1802 20.2236 48.7619 19.7667 48.4626 19.4504C48.3129 19.2921 48.1928 19.169 48.1079 19.0831C48.0235 18.9978 47.9698 18.9454 47.974 18.9495L46.0026 20.9379C46.008 20.9432 46.1611 21.0919 46.4287 21.3748C46.6981 21.6595 47.0831 22.0798 47.5407 22.6176C48.4576 23.695 49.6574 25.234 50.8018 27.0897L53.185 25.6199ZM47.9772 18.9527L46.4169 17.3956L44.439 19.3776L45.9994 20.9347L47.9772 18.9527ZM46.4164 17.3952L44.1763 15.1616L42.1993 17.1444L44.4394 19.378L46.4164 17.3952ZM42.0098 15.3964L41.3237 16.4647L43.6796 17.9779L44.3657 16.9096L42.0098 15.3964ZM43.8498 16.8439C43.755 16.5054 43.6485 16.1682 43.532 15.8325L40.8868 16.7507C40.9863 17.0373 41.0754 17.3199 41.1535 17.5987L43.8498 16.8439ZM43.5308 15.8293C42.557 13.0456 40.8455 10.509 38.4857 8.28063L36.5633 10.3164C38.6406 12.2781 40.0803 14.4455 40.8879 16.7539L43.5308 15.8293ZM38.4853 8.2802C35.9495 5.88777 32.5708 3.76667 28.4861 1.94969L27.3481 4.508C31.2329 6.23606 34.3193 8.1992 36.5637 10.3168L38.4853 8.2802ZM28.4875 1.95032L26.6324 1.12264L25.4916 3.67968L27.3467 4.50736L28.4875 1.95032ZM26.6318 1.12236L21.243 -1.2788L20.1033 1.2788L25.4922 3.67996L26.6318 1.12236Z" fill="#3AB795" mask="url(#path-1-outside-1_24_1513)"/>
</g>
<defs>
<clipPath id="clip0_24_1513">
<rect width="60" height="60" fill="white" transform="translate(0.5)"/>
</clipPath>
</defs>
</svg>
