<svg width="24" height="24" viewBox="0 0 24 24" fill="none" xmlns="http://www.w3.org/2000/svg">
<path d="M4.63467 12L13.6802 21.12C13.885 21.3266 14 21.6067 14 21.8988C14 22.1908 13.885 22.4709 13.6802 22.6775C13.4754 22.884 13.1976 23 12.908 23C12.6184 23 12.3407 22.884 12.1359 22.6775L2.32041 12.7787C2.21884 12.6765 2.13826 12.5552 2.08328 12.4215C2.0283 12.2879 2 12.1447 2 12C2 11.8553 2.0283 11.7121 2.08328 11.5785C2.13826 11.4448 2.21884 11.3235 2.32041 11.2213L12.1359 1.32255C12.3407 1.11602 12.6184 1 12.908 1C13.1976 1 13.4754 1.11602 13.6802 1.32255C13.885 1.52907 14 1.80918 14 2.10125C14 2.39332 13.885 2.67343 13.6802 2.87995L4.63467 12Z" fill="white"/>
</svg>
