<svg width="50" height="50" viewBox="0 0 50 50" fill="none" xmlns="http://www.w3.org/2000/svg">
<path d="M38.8027 17.9772C38.0116 17.3838 37.4183 16.5927 37.616 15.6038C38.0116 12.6372 36.0338 10.066 33.0672 9.47272C32.4738 9.47272 32.0783 9.07716 31.4849 8.87937C30.496 8.48377 29.7049 8.28603 28.716 8.48377C28.1227 8.68156 27.9249 8.48377 27.5294 8.08821C24.9582 6.11046 21.2004 6.90159 20.0138 9.86825C19.816 10.6594 19.2227 11.2527 18.4316 11.4505C18.2337 11.4505 18.036 11.6483 18.036 11.6483C17.6404 12.2416 17.2449 12.0438 16.6516 11.846C13.6849 10.6594 10.3226 12.8349 10.3226 15.9994C10.3226 16.395 10.1249 16.9883 9.9271 17.3839C8.93819 18.9661 8.74041 20.3505 9.33376 21.9328C8.93819 22.9217 9.33376 24.3061 10.3226 25.0972C11.5093 26.0861 12.8938 25.4928 13.8826 24.7017C14.0805 24.7017 14.476 24.7017 14.8716 24.5039C15.4649 24.3061 16.0582 24.1083 16.6516 24.3061L16.8493 24.5039C17.0471 24.7017 17.2449 24.7017 17.4427 24.8995C18.4316 28.4595 20.6071 31.6239 23.5738 33.7995C23.376 35.975 22.7827 38.1506 21.7938 40.1284C20.6071 40.9195 19.0249 40.3262 17.8382 39.9306C16.6516 39.5351 15.6626 39.5351 14.476 39.9306C14.2782 39.9306 14.0804 40.1284 14.0804 40.3261C14.0804 40.7217 13.8826 41.1173 13.8826 41.5128C13.8826 41.9084 14.0805 42.1062 14.2782 42.1062H35.0449C35.2427 42.1062 35.4405 42.1062 35.4405 41.9084C35.6383 41.9084 35.6383 41.7106 35.6383 41.5128V40.7217C35.6383 40.5239 35.4405 40.3261 35.2427 40.3261C35.2427 40.3261 35.0449 40.1283 34.8472 40.1283H28.716C28.3205 39.7328 28.1227 39.3372 27.7271 39.1395C26.7382 38.1505 26.3427 36.9639 26.7382 35.7772C26.936 35.3817 26.936 34.7883 27.1338 34.3928C27.3316 33.0083 27.5294 31.6239 27.7271 30.0416C29.9027 29.8439 31.6827 28.855 33.2649 27.4705C33.8583 27.4705 34.4516 27.2728 34.8472 27.075H35.0449C36.0338 27.8661 37.616 27.8661 38.8027 27.4705C39.7916 27.075 40.7805 26.0861 40.7805 24.8994V24.5038C41.3738 22.1305 40.7805 19.3616 38.8027 17.9771V17.9772ZM20.6071 24.5038C20.8049 24.5038 21.2004 24.5038 21.3982 24.7016C21.596 24.8994 21.9916 25.0972 22.1894 25.2949C22.5849 26.6794 22.9804 27.866 23.376 29.2505C23.376 29.8438 23.5738 30.635 23.5738 31.2283C21.596 29.4483 20.4093 27.0749 20.6071 24.5038ZM28.1227 28.2616C28.1227 28.0639 28.3205 27.8661 28.3205 27.6683V27.4705C28.5182 26.8772 28.9138 26.2839 29.1116 25.6905C29.5072 26.0861 29.9027 26.2839 30.2982 26.6794C29.9027 27.2728 29.1116 27.8661 28.1227 28.2616Z" fill="white"/>
</svg>
